<svg xmlns="http://www.w3.org/2000/svg" width="49.369" height="48.202" viewBox="0 0 49.369 48.202">
  <g id="Group_790" data-name="Group 790" transform="translate(-5251.5 -5028.5)">
    <g id="Group_621" data-name="Group 621" transform="translate(5265.831 5068.771)">
      <g id="Group_619" data-name="Group 619">
        <circle id="Ellipse_28" data-name="Ellipse 28" cx="3.966" cy="3.966" r="3.966" fill="#1e1e1e"/>
      </g>
      <g id="Group_620" data-name="Group 620" transform="translate(23.117)">
        <circle id="Ellipse_29" data-name="Ellipse 29" cx="3.966" cy="3.966" r="3.966" fill="#1e1e1e"/>
      </g>
    </g>
    <g id="Cart" transform="translate(5252 5029)">
      <g id="Group_622" data-name="Group 622">
        <path id="Path_602" data-name="Path 602" d="M87.151,197.49a1.264,1.264,0,0,0-.967-.448H51.8l-1.89-9.962a1.26,1.26,0,0,0-1.231-1.029H40.346a1.262,1.262,0,1,0,0,2.524h7.289l5.381,28.366a5.472,5.472,0,0,0,5.416,4.59h20.25a5.456,5.456,0,0,0,5.408-4.572l3.333-18.43A1.267,1.267,0,0,0,87.151,197.49Zm-8.468,21.525H58.433a2.966,2.966,0,0,1-2.928-2.506l-3.218-16.944H84.68l-3.069,16.962A2.958,2.958,0,0,1,78.683,219.015Z" transform="translate(-39.08 -186.05)" fill="#1e1e1e" stroke="#1e1e1e" stroke-width="1"/>
      </g>
    </g>
  </g>
</svg>
